<svg width="20" height="20" viewBox="0 0 20 20" fill="none" xmlns="http://www.w3.org/2000/svg">
<path fill-rule="evenodd" clip-rule="evenodd" d="M11.6666 2.49984C11.6666 2.0396 12.0397 1.6665 12.5 1.6665H17.5C17.9602 1.6665 18.3333 2.0396 18.3333 2.49984V7.49984C18.3333 7.96007 17.9602 8.33317 17.5 8.33317C17.0397 8.33317 16.6666 7.96007 16.6666 7.49984V3.33317H12.5C12.0397 3.33317 11.6666 2.96007 11.6666 2.49984Z" fill="white"/>
<path fill-rule="evenodd" clip-rule="evenodd" d="M18.0893 1.91058C18.4147 2.23602 18.4147 2.76366 18.0893 3.08909L8.92259 12.2558C8.59715 12.5812 8.06951 12.5812 7.74408 12.2558C7.41864 11.9303 7.41864 11.4027 7.74408 11.0772L16.9107 1.91058C17.2362 1.58514 17.7638 1.58514 18.0893 1.91058Z" fill="white"/>
<path fill-rule="evenodd" clip-rule="evenodd" d="M4.16663 5.83317C3.94561 5.83317 3.73365 5.92097 3.57737 6.07725C3.42109 6.23353 3.33329 6.44549 3.33329 6.6665V15.8332C3.33329 16.0542 3.42109 16.2661 3.57737 16.4224C3.73365 16.5787 3.94561 16.6665 4.16663 16.6665H13.3333C13.5543 16.6665 13.7663 16.5787 13.9225 16.4224C14.0788 16.2661 14.1666 16.0542 14.1666 15.8332V10.8332C14.1666 10.3729 14.5397 9.99984 15 9.99984C15.4602 9.99984 15.8333 10.3729 15.8333 10.8332V15.8332C15.8333 16.4962 15.5699 17.1321 15.1011 17.6009C14.6322 18.0698 13.9963 18.3332 13.3333 18.3332H4.16663C3.50358 18.3332 2.8677 18.0698 2.39886 17.6009C1.93002 17.1321 1.66663 16.4962 1.66663 15.8332V6.6665C1.66663 6.00346 1.93002 5.36758 2.39886 4.89874C2.8677 4.4299 3.50358 4.1665 4.16663 4.1665H9.16663C9.62686 4.1665 9.99996 4.5396 9.99996 4.99984C9.99996 5.46007 9.62686 5.83317 9.16663 5.83317H4.16663Z" fill="white"/>
</svg>
